<svg width="394" height="379" viewBox="0 0 394 379" fill="none" xmlns="http://www.w3.org/2000/svg">
<path d="M73.5902 11.8162C83.3592 8.04709 89.1161 7.29135 97.049 6.05789C156.14 -3.11012 214.945 -1.06204 273.304 11.8284C298.073 17.3165 321.9 25.5797 343.578 38.9762C358.716 48.3514 371.829 59.8138 380.935 75.3443C382.57 78.1767 384.174 80.9342 385.809 83.7666C386.156 84.5888 386.534 85.4858 386.881 86.3081C387.161 87.5987 387.41 88.8146 387.691 90.1052C389.364 97.412 391.774 104.585 392.712 112.026C396.135 139.551 390.723 165.962 381.895 191.788C370.478 225.046 353.581 255.333 332.362 283.306C307.053 316.613 277.763 345.701 239.879 364.853C225.744 372.05 210.887 376.908 195.017 378.321C170.481 380.483 148.202 373.592 127.618 360.702C108.606 348.823 92.9163 333.34 78.8665 316.109C65.6635 299.842 53.9789 282.582 44.1549 264.096C37.7356 252.011 31.2415 239.958 25.8687 227.431C20.0859 213.933 15.3496 199.993 10.6449 186.128C6.02306 172.668 3.28986 158.676 1.65456 144.573C-1.00631 121.568 0.0598447 98.8406 8.13153 76.8557C17.3501 51.7453 33.704 32.6942 57.0552 19.5846" fill="#DADADA"/>
</svg>
