<svg xmlns="http://www.w3.org/2000/svg" xmlns:xlink="http://www.w3.org/1999/xlink" viewBox="0 0 1440 663">
  <defs>
    <style>
      .cls-1 {
        fill: #94c578;
      }

      .cls-2 {
        fill: url(#Безымянный_градиент_2);
      }

      .cls-3 {
        fill: #64be50;
      }

      .cls-4 {
        fill: #3c8d2a;
      }

      .cls-5 {
        fill: #2a8026;
      }

      .cls-6 {
        fill: #1e6c1a;
      }

      .cls-7 {
        fill: #156911;
      }
    </style>
    <linearGradient id="Безымянный_градиент_2" data-name="Безымянный градиент 2" x1="286.16" y1="427.36" x2="1726.16" y2="1090.86" gradientTransform="matrix(1, 0, 0, -1, -270.96, 1078.4)" gradientUnits="userSpaceOnUse">
      <stop offset="0.09" stop-color="#72bf44"/>
      <stop offset="0.69" stop-color="#20731c"/>
    </linearGradient>
  </defs>
  <title>phone</title>
  <g id="Слой_6" data-name="Слой 6">
    <path class="cls-1" d="M0,93.5C332.66,16.9,605.07,58.36,817.5,64,1051.6,70.22,1172,57.5,1440,0V587.5c-210,43-437,44.74-622.5,25C558.86,585,319.33,611.3,0,663Z"/>
    <path class="cls-2" d="M0,92.54c332.66-76.59,605.07,10.36,817.5,16,234.1,6.22,354.5,0,622.5-57.5V560c-210,43-437,71.25-622.5,51.5C558.86,584,319.33,508.35,0,560Z"/>
    <circle class="cls-1" cx="452" cy="307" r="284"/>
    <circle class="cls-3" cx="452" cy="307" r="219"/>
    <circle class="cls-4" cx="452" cy="263.5" r="138"/>
    <path class="cls-5" d="M1269,339.5a171,171,0,0,0,171,171v-342A171,171,0,0,0,1269,339.5Z"/>
    <path class="cls-6" d="M1325,339.5a115,115,0,0,0,115,115v-230A115,115,0,0,0,1325,339.5Z"/>
    <path class="cls-7" d="M1380,339.5a60,60,0,0,0,60,60v-120A60,60,0,0,0,1380,339.5Z"/>
  </g>
</svg>
