<svg xmlns="http://www.w3.org/2000/svg" xmlns:xlink="http://www.w3.org/1999/xlink" viewBox="0 0 1441.3 949.5">
  <defs>
    <style>
      .cls-1 {
        isolation: isolate;
      }

      .cls-2 {
        fill: #94c578;
      }

      .cls-3 {
        fill: url(#Безымянный_градиент_3);
      }

      .cls-4 {
        mix-blend-mode: soft-light;
      }

      .cls-5 {
        fill: #2a8026;
      }

      .cls-6 {
        fill: #1e6c1a;
      }
    </style>
    <linearGradient id="Безымянный_градиент_3" data-name="Безымянный градиент 3" x1="1000.31" y1="66.13" x2="982.38" y2="1093.45" gradientTransform="matrix(1, 0, 0, -1, -270.96, 1078.4)" gradientUnits="userSpaceOnUse">
      <stop offset="0.07" stop-color="#082607"/>
      <stop offset="0.52" stop-color="#185e14"/>
      <stop offset="1" stop-color="#5d973b"/>
    </linearGradient>
  </defs>
  <title>footer</title>
  <g class="cls-1">
    <g id="Слой_6" data-name="Слой 6">
      <path class="cls-2" d="M0,89.49c293-177,420.5-27,682.5-26s469-107.5,757.5-43v518c-210,43-437,44.74-622.5,25C558.86,536,347,453.49,0,504.49Z" transform="translate(0.3 0)"/>
      <path class="cls-3" d="M0,45.45c332.66-77,447,51.74,706.5,49.82S1118.5-15.21,1440,3.71l1,945.79H0Z" transform="translate(0.3 0)"/>
      <g class="cls-4">
        <path class="cls-2" d="M1007.24,242.9c9.77-3.76,15.52-4.52,23.46-5.75A473.77,473.77,0,0,1,1207,242.92c24.77,5.48,48.6,13.75,70.28,27.14,15.13,9.38,28.25,20.84,37.35,36.37,1.64,2.84,3.24,5.59,4.88,8.42.34.83.72,1.72,1.07,2.55.28,1.29.53,2.5.81,3.79,1.67,7.31,4.08,14.48,5,21.92,3.42,27.53-2,53.94-10.82,79.77-11.41,33.25-28.31,63.54-49.53,91.51-25.31,33.31-54.6,62.4-92.48,81.55-14.14,7.2-29,12.06-44.86,13.47-24.54,2.16-46.82-4.73-67.4-17.62-19-11.88-34.71-27.36-48.76-44.59a323.8,323.8,0,0,1-34.71-52c-6.42-12.08-12.91-24.13-18.28-36.66-5.79-13.5-10.52-27.44-15.23-41.3a198.31,198.31,0,0,1-9-41.56c-2.66-23-1.59-45.73,6.48-67.72q13.83-37.67,48.92-57.27" transform="translate(0.3 0)"/>
      </g>
      <path class="cls-5" d="M942.3,319.68c6.74-8,11.42-11.46,17.77-16.36a473.81,473.81,0,0,1,157.17-80c24.35-7.15,49.21-11.4,74.66-10.12,17.78.9,34.8,4.62,50.26,13.83l8.34,5,2.16,1.71c.87,1,1.67,1.94,2.54,2.93,5,5.59,10.56,10.72,15,16.78,16.28,22.46,24.28,48.21,29,75.09,6,34.64,5.85,69.32.76,104.06-6.11,41.38-17.73,81-41.68,116-8.91,13.12-19.58,24.55-32.8,33.44-20.44,13.73-43.28,18.44-67.53,17.08-22.39-1.23-43.6-7.23-64.22-15.54a323.86,323.86,0,0,1-55.5-28.82c-11.45-7.49-23-14.91-33.7-23.29-11.58-9-22.45-19-33.26-28.84a197.74,197.74,0,0,1-27.92-32.06c-13.43-18.87-23.46-39.29-27-62.44-4-26.45,1.09-51,15.22-73.77" transform="translate(0.3 0)"/>
      <path class="cls-5" d="M296.2,367C132.45,367-.3,499.75-.3,663.5h593C592.7,499.75,460,367,296.2,367Z" transform="translate(0.3 0)"/>
      <path class="cls-6" d="M296.2,464.1c-110.13,0-199.4,89.27-199.4,199.4H495.6C495.6,553.37,406.33,464.1,296.2,464.1Z" transform="translate(0.3 0)"/>
    </g>
  </g>
</svg>
