<?xml version="1.0" standalone="no"?>
<!DOCTYPE svg PUBLIC "-//W3C//DTD SVG 20010904//EN"
 "http://www.w3.org/TR/2001/REC-SVG-20010904/DTD/svg10.dtd">
<svg version="1.0" xmlns="http://www.w3.org/2000/svg"
 width="512.000000pt" height="512.000000pt" viewBox="0 0 512.000000 512.000000"
 preserveAspectRatio="xMidYMid meet">
<metadata>
Created by potrace 1.11, written by Peter Selinger 2001-2013
</metadata>
<g transform="translate(0.000000,512.000000) scale(0.100000,-0.100000)"
fill="#000000" stroke="none">
<path d="M281 4990 l-33 -5 0 -2445 c1 -1345 1 -2455 1 -2467 l1 -22 995 0
c931 0 995 1 996 17 0 9 1 224 1 477 0 253 2 468 5 478 2 9 8 15 13 12 10 -6
392 -6 470 -1 426 31 826 133 1135 291 101 52 258 146 275 166 3 3 30 24 60
46 74 54 203 182 272 268 233 292 368 658 395 1075 13 195 7 426 -17 590 -17
117 -19 128 -50 246 -143 540 -501 903 -1079 1094 -98 32 -169 53 -178 51 -2
0 -24 6 -50 14 -27 8 -109 25 -183 39 -127 23 -161 28 -285 41 -27 4 -61 8
-75 10 -14 2 -63 7 -110 11 -47 3 -105 9 -130 12 -61 6 -2386 9 -2429 2z
m2204 -174 c110 -4 216 -9 235 -11 19 -2 76 -6 125 -10 50 -3 105 -8 123 -11
17 -2 47 -6 65 -8 63 -9 132 -19 152 -22 11 -2 36 -7 55 -10 78 -13 79 -12
-91 -124 -146 -96 -660 -432 -953 -624 -60 -39 -195 -128 -300 -197 -237 -156
-226 -156 -360 -16 -49 50 -176 182 -281 292 -106 110 -224 232 -261 271 -38
40 -152 158 -254 264 -102 105 -186 195 -187 198 -2 4 210 8 469 10 260 2 473
4 474 5 5 5 811 -1 989 -7z m-1960 -240 c49 -52 169 -177 266 -278 97 -100
200 -208 229 -238 52 -55 394 -410 481 -501 l47 -48 -58 -158 c-31 -87 -92
-252 -135 -368 -43 -115 -99 -268 -125 -340 -26 -71 -52 -141 -58 -155 -6 -14
-48 -126 -93 -250 -45 -124 -121 -331 -169 -460 -48 -129 -174 -472 -281 -762
-107 -290 -196 -528 -199 -528 -3 0 -5 941 -5 2090 0 1150 2 2090 5 2090 3 0
45 -42 95 -94z m3165 54 c405 -144 673 -366 835 -690 65 -129 112 -290 150
-505 18 -107 25 -331 10 -328 -5 0 -26 4 -45 7 -19 3 -107 19 -195 36 -208 40
-473 91 -505 96 -14 2 -36 7 -50 10 -14 3 -32 7 -40 9 -38 7 -97 17 -120 22
-13 2 -54 10 -90 18 -36 8 -88 17 -116 21 -27 3 -52 8 -55 10 -4 2 -24 6 -45
10 -22 3 -142 26 -269 50 -289 56 -642 124 -675 130 -54 10 -396 76 -405 78
-5 2 -31 6 -57 11 -27 4 -48 10 -48 14 0 3 15 16 33 27 54 36 376 247 472 309
50 32 187 122 305 199 321 211 506 332 646 424 70 45 133 82 140 82 7 0 63
-18 124 -40z m-1810 -1172 c25 -5 54 -11 65 -13 35 -6 150 -27 160 -29 47 -11
74 -16 95 -20 21 -3 94 -17 225 -42 11 -2 43 -8 70 -14 72 -15 96 -20 130 -25
17 -3 86 -17 155 -30 141 -27 172 -33 215 -40 17 -3 62 -12 100 -20 39 -8 85
-17 102 -20 18 -3 78 -14 133 -25 55 -11 115 -22 133 -25 17 -3 77 -14 132
-25 124 -25 143 -28 440 -85 132 -25 292 -56 355 -69 l115 -23 -270 -178
c-148 -98 -360 -237 -470 -310 -110 -72 -312 -206 -450 -297 -1196 -789 -1135
-749 -1135 -734 0 3 -14 70 -30 149 -17 78 -32 151 -35 162 -2 11 -10 54 -19
95 -8 41 -29 140 -46 220 -17 80 -37 177 -45 215 -8 39 -25 124 -39 190 -14
66 -43 206 -65 310 -67 321 -80 384 -114 548 l-34 157 41 -5 c23 -4 61 -11 86
-17z m-211 -443 c12 -55 23 -111 26 -125 11 -57 22 -114 35 -170 5 -25 12 -56
15 -70 3 -14 7 -36 10 -50 2 -14 36 -173 74 -355 38 -181 72 -343 75 -360 4
-16 8 -41 11 -55 2 -14 22 -108 44 -210 22 -102 42 -196 44 -210 3 -14 8 -41
11 -60 l7 -35 -213 -139 c-117 -77 -339 -223 -493 -325 -576 -379 -730 -480
-732 -477 -2 1 8 31 22 67 48 128 419 1133 500 1354 18 50 135 367 261 705
125 338 234 635 243 660 l15 45 12 -45 c6 -25 21 -90 33 -145z m3016 -197 c-3
-18 -7 -55 -11 -83 -5 -41 -19 -117 -39 -205 -24 -106 -120 -341 -182 -445
-276 -460 -804 -760 -1499 -850 -199 -26 -211 -26 -465 -30 -228 -3 -271 0
-271 20 0 4 96 70 214 147 117 77 303 199 412 272 110 72 317 208 460 303 144
94 360 236 481 316 121 80 355 234 520 342 165 108 316 208 335 221 45 31 49
30 45 -8z m-2620 -2145 c0 -282 -3 -437 -10 -441 -13 -9 -1345 -9 -1345 -1 0
4 57 44 128 90 70 46 260 171 422 278 162 106 338 222 390 256 52 34 164 108
249 164 84 56 156 99 160 96 3 -4 6 -202 6 -442z"/>
</g>
</svg>
