<?xml version="1.0" encoding="utf-8"?>
<!-- Generator: Adobe Illustrator 22.0.0, SVG Export Plug-In . SVG Version: 6.00 Build 0)  -->
<svg version="1.1" id="Слой_1" xmlns="http://www.w3.org/2000/svg" xmlns:xlink="http://www.w3.org/1999/xlink" x="0px" y="0px"
	 viewBox="0 0 16 16" style="enable-background:new 0 0 16 16;" xml:space="preserve">
<g>
	<g>
		<path d="M7.5,12.4v-0.6c3.8,0,7-2.5,7-5.5c0-3.5-1.6-5.1-5.1-5.1l-0.2,0c-0.4,0-1.4,0-1.5,0l0-0.6c0.1,0,1,0,1.5,0l0.2,0
			c3.8,0,5.7,1.9,5.7,5.7C15,9.6,11.6,12.4,7.5,12.4z"/>
	</g>
	<g>
		<path d="M1.9,15.5C1.9,15.5,1.8,15.5,1.9,15.5c-0.3-0.1-0.3-0.2-0.3-0.4L5.1,4.6c0.1-0.2,0.2-0.2,0.4-0.2c0.2,0.1,0.2,0.2,0.2,0.4
			L2.2,15.3C2.1,15.4,2,15.5,1.9,15.5z"/>
	</g>
	<g>
		<path d="M1.9,15.5c-0.1,0-0.2,0-0.2-0.1c-0.1-0.1-0.1-0.3,0-0.4l5.1-4.1c0.1-0.1,0.3-0.1,0.4,0c0.1,0.1,0.1,0.3,0,0.4l-5.1,4.1
			C2,15.4,2,15.5,1.9,15.5z"/>
	</g>
	<g>
		<path d="M7,15.5H1.9c-0.2,0-0.3-0.1-0.3-0.3c0-0.2,0.1-0.3,0.3-0.3H7c0.2,0,0.3,0.1,0.3,0.3C7.3,15.3,7.2,15.5,7,15.5z"/>
	</g>
	<g>
		<path d="M5.4,5C5.3,5,5.2,5,5.1,4.9L1.3,1c-0.1-0.1-0.1-0.3,0-0.4c0.1-0.1,0.3-0.1,0.4,0l3.8,3.8c0.1,0.1,0.1,0.3,0,0.4
			C5.5,5,5.4,5,5.4,5z"/>
	</g>
	<g>
		<path d="M5.4,5c-0.1,0-0.2,0-0.3-0.1C5,4.7,5.1,4.5,5.2,4.4L10.5,1c0.1-0.1,0.3-0.1,0.4,0.1c0.1,0.1,0,0.3-0.1,0.4L5.5,4.9
			C5.5,5,5.4,5,5.4,5z"/>
	</g>
	<g>
		<path d="M14.3,6.8C14.2,6.8,14.2,6.8,14.3,6.8L5.7,5.1C5.5,5,5.4,4.9,5.4,4.7c0-0.2,0.2-0.3,0.4-0.2l8.5,1.7
			c0.2,0,0.3,0.2,0.2,0.4C14.5,6.7,14.4,6.8,14.3,6.8z"/>
	</g>
	<g>
		<path d="M7,11.4c-0.1,0-0.2,0-0.3-0.1c-0.1-0.1,0-0.3,0.1-0.4l7.2-4.7c0.1-0.1,0.3,0,0.4,0.1c0.1,0.1,0,0.3-0.1,0.4l-7.2,4.7
			C7.1,11.4,7.1,11.4,7,11.4z"/>
	</g>
	<g>
		<path d="M7,11.4c-0.1,0-0.3-0.1-0.3-0.2L5.2,4.7c0-0.2,0.1-0.3,0.2-0.4c0.2,0,0.3,0.1,0.4,0.2L7.3,11C7.3,11.2,7.2,11.4,7,11.4
			C7.1,11.4,7,11.4,7,11.4z"/>
	</g>
	<g>
		<path d="M7.6,1.1H1.5C1.3,1.1,1.2,1,1.2,0.8s0.1-0.3,0.3-0.3h6.1c0.2,0,0.3,0.1,0.3,0.3S7.8,1.1,7.6,1.1z"/>
	</g>
	<g>
		<path d="M1.5,15.5c-0.2,0-0.3-0.1-0.3-0.3V0.8c0-0.2,0.1-0.3,0.3-0.3s0.3,0.1,0.3,0.3v14.3C1.8,15.3,1.7,15.5,1.5,15.5z"/>
	</g>
	<g>
		<rect x="6" y="11.8" width="1.7" height="0.6"/>
	</g>
	<g>
		<path d="M7,15.5c-0.2,0-0.3-0.1-0.3-0.3v-4.1c0-0.2,0.1-0.3,0.3-0.3c0.2,0,0.3,0.1,0.3,0.3v4.1C7.3,15.3,7.2,15.5,7,15.5z"/>
	</g>
</g>
</svg>
